<?xml version="1.0" encoding="utf-8"?>
<svg xmlns="http://www.w3.org/2000/svg"
	xmlns:xlink="http://www.w3.org/1999/xlink"
	width="16px" height="16px" viewBox="0 0 16 16">
<path fillRule="evenodd" d="M 15.5 8.38C 15.5 4.13 11.99 0.5 8.11 0.5 3.85 0.5 0.5 4.13 0.5 8.38 0.5 11.62 2.24 14.08 5.06 15 5.04 14.58 5.05 14.08 5.18 13.63 5.18 13.63 5.33 13.15 6.16 9.5 5.91 9 5.91 8.24 5.91 8.24 5.91 7.07 6.57 6.19 7.38 6.19 8.08 6.19 8.42 6.74 8.42 7.39 8.42 8.11 7.97 9.19 7.74 10.19 7.55 11.04 8.15 11.72 8.83 11.72 9.96 11.72 10.71 9.79 10.71 7.51 10.71 5.84 9.83 4.77 8.19 4.77 5.87 4.77 4.45 6.26 4.45 8.26 4.45 8.95 4.64 9.44 4.95 9.82 5.09 9.99 5.11 10.06 5.06 10.26 5.02 10.41 4.94 10.76 4.9 10.89 4.85 11.1 4.69 11.17 4.53 11.1 3.35 10.64 2.79 9.43 2.79 8.07 2.79 5.89 4.79 2.91 8.4 2.91 10.67 2.91 13.21 5.47 13.21 7.66 13.21 10.77 10.98 13.09 8.96 13.09 8.29 13.09 7.51 12.62 7.25 12.1 6.81 13.72 6.72 13.98 6.72 13.98 6.56 14.44 6.23 14.89 5.94 15.25 6.64 15.41 7.35 15.5 8.11 15.5 11.99 15.5 15.5 12.75 15.5 8.38 15.5 8.38 15.5 8.38 15.5 8.38Z" fill="rgb(255,255,255)"/></svg>