<?xml version="1.0" encoding="utf-8"?>
<svg xmlns="http://www.w3.org/2000/svg"
	xmlns:xlink="http://www.w3.org/1999/xlink"
	width="16px" height="14px" viewBox="0 0 16 14">
<path fillRule="evenodd" d="M 3.73 4.43C 3.73 4.43 0.68 4.43 0.68 4.43 0.68 4.43 0.68 14 0.68 14 0.68 14 3.73 14 3.73 14 3.73 14 3.73 4.43 3.73 4.43 3.73 4.43 3.73 4.43 3.73 4.43ZM 3.94 1.47C 3.93 0.71 3.27-0 2.22-0 1.19-0 0.5 0.71 0.5 1.65 0.5 2.57 1.16 3.3 2.19 3.3 2.19 3.3 2.2 3.3 2.2 3.3 3.27 3.3 3.95 2.57 3.94 1.65 3.94 1.65 3.94 1.47 3.94 1.47 3.94 1.47 3.94 1.47 3.94 1.47ZM 15.5 8.44C 15.5 5.62 14 4.39 11.95 4.39 10.14 4.21 9.35 5.16 8.91 5.82 8.91 5.82 8.93 5.84 8.93 5.84 8.93 5.84 8.93 4.58 8.93 4.58 8.93 4.58 5.58 4.58 5.58 4.58 5.58 4.58 5.62 5.39 5.58 13.93 5.58 13.93 8.93 13.93 8.93 13.93 8.93 13.93 8.93 8.59 8.93 8.59 8.93 8.3 8.96 8.02 9.04 7.81 9.28 7.24 9.83 6.65 10.76 6.65 11.97 6.65 12.46 7.53 12.46 8.81 12.46 8.81 12.46 13.93 12.46 13.93 12.46 13.93 15.5 13.93 15.5 13.93 15.5 13.93 15.5 8.44 15.5 8.44 15.5 8.44 15.5 8.44 15.5 8.44Z" fill="rgb(255,255,255)"/></svg>