<?xml version="1.0" encoding="utf-8"?>
<svg xmlns="http://www.w3.org/2000/svg"
	xmlns:xlink="http://www.w3.org/1999/xlink"
	width="14px" height="14px" viewBox="0 0 14 14">
<path fillRule="evenodd" d="M 4.04 12.09C 4.04 11.04 3.25 10.18 2.27 10.18 1.29 10.18 0.5 11.04 0.5 12.09 0.5 13.14 1.29 14 2.27 14 3.25 14 4.04 13.14 4.04 12.09 4.04 12.09 4.04 12.09 4.04 12.09ZM 8.77 13.31C 8.61 11.2 7.75 9.2 6.35 7.7 4.96 6.18 3.1 5.26 1.14 5.09 1.14 5.09 1.09 5.09 1.09 5.09 0.94 5.09 0.8 5.15 0.69 5.26 0.56 5.38 0.5 5.55 0.5 5.73 0.5 5.73 0.5 7.07 0.5 7.07 0.5 7.4 0.73 7.67 1.04 7.7 3.85 7.98 6.08 10.39 6.35 13.42 6.38 13.75 6.63 14 6.93 14 6.93 14 8.18 14 8.18 14 8.34 14 8.5 13.93 8.61 13.79 8.72 13.66 8.78 13.49 8.77 13.31 8.77 13.31 8.77 13.31 8.77 13.31ZM 13.5 13.33C 13.33 9.85 11.97 6.58 9.67 4.12 7.38 1.64 4.35 0.18 1.12-0 1.12-0 1.09-0 1.09-0 0.94-0 0.8 0.06 0.68 0.18 0.56 0.3 0.5 0.46 0.5 0.64 0.5 0.64 0.5 2.06 0.5 2.06 0.5 2.39 0.74 2.66 1.05 2.68 6.41 3.02 10.69 7.63 10.99 13.4 11.01 13.74 11.27 14 11.58 14 11.58 14 12.9 14 12.9 14 13.07 14 13.21 13.93 13.33 13.8 13.45 13.67 13.51 13.5 13.5 13.33 13.5 13.33 13.5 13.33 13.5 13.33Z" fill="rgb(255,255,255)"/></svg>