<?xml version="1.0" encoding="utf-8"?>
<svg xmlns="http://www.w3.org/2000/svg"
	xmlns:xlink="http://www.w3.org/1999/xlink"
	width="16px" height="16px" viewBox="0 0 16 16">
<path fillRule="evenodd" d="M 8.59 12.77C 8.59 14.31 6.88 14.84 5.82 14.84 4.2 14.84 1.77 14.19 1.77 12.5 1.77 10.67 4.51 10.22 6.05 10.22 6.17 10.22 6.28 10.22 6.41 10.24 7.22 10.86 8.59 11.54 8.59 12.77 8.59 12.77 8.59 12.77 8.59 12.77ZM 7.34 4.82C 7.34 5.77 6.88 6.54 5.9 6.54 4.12 6.54 2.99 4.68 2.99 3.33 2.99 2.19 3.71 1.1 5.19 1.1 6.63 1.1 7.34 3.5 7.34 4.82 7.34 4.82 7.34 4.82 7.34 4.82ZM 6.28 0.5C 5.83 0.5 5.3 0.56 4.61 0.67 2.57 1 1.19 2.51 1.19 4.33 1.19 5.89 2.8 7.2 4.98 7.2 5.24 7.2 5.5 7.18 5.68 7.14 5.61 7.47 5.52 7.69 5.52 8.03 5.52 8.6 5.74 9.12 5.98 9.56 3.93 9.61 1.14 10.12 0.34 11.72 0.15 12.09-0 12.49-0 12.91-0 14.93 2.23 15.5 4.67 15.5 6.14 15.5 7.4 15.27 8.59 14.5 9.38 13.85 9.89 13.03 9.89 12.02 9.89 9.4 6.93 8.88 6.93 7.56 6.93 6.25 9.19 6.09 9.19 4.01 9.19 2.89 8.72 1.75 7.71 1.16 7.71 1.16 8.33 1.16 8.33 1.16 8.33 1.16 9.84 0.5 9.84 0.5 9.84 0.5 6.28 0.5 6.28 0.5 6.28 0.5 6.28 0.5 6.28 0.5ZM 16 2.83C 16 2.83 13.63 2.83 13.63 2.83 13.63 2.83 13.63 0.5 13.63 0.5 13.63 0.5 12.36 0.5 12.36 0.5 12.36 0.5 12.36 2.83 12.36 2.83 12.36 2.83 9.95 2.83 9.95 2.83 9.95 2.83 9.95 4.11 9.95 4.11 9.95 4.11 12.36 4.11 12.36 4.11 12.36 4.11 12.36 6.1 12.36 6.1 12.36 6.1 13.63 6.1 13.63 6.1 13.63 6.1 13.63 4.11 13.63 4.11 13.63 4.11 16 4.11 16 4.11 16 4.11 16 2.83 16 2.83 16 2.83 16 2.83 16 2.83Z" fill="rgb(255,255,255)"/></svg>